<svg width="27" height="32" viewBox="0 0 27 32" fill="none" xmlns="http://www.w3.org/2000/svg">
<g clip-path="url(#clip0_122_139)">
<path d="M22.272 2.27197C25.12 2.27197 27.424 4.57597 27.424 7.42397V24.576C27.424 27.424 25.12 29.728 22.272 29.728H18.944V19.072H22.496L23.008 14.944H18.944V12.288C18.944 11.104 19.264 10.304 20.992 10.304L23.168 10.272V6.59197C22.784 6.52797 21.472 6.43197 19.968 6.43197C16.832 6.43197 14.656 8.35197 14.656 11.904V14.944H11.072V19.072H14.656V29.728H5.152C2.304 29.728 0 27.424 0 24.576V7.42397C0 4.57597 2.304 2.27197 5.152 2.27197H22.272Z" fill="white"/>
</g>
<defs>
<clipPath id="clip0_122_139">
<rect width="27" height="32" fill="white"/>
</clipPath>
</defs>
</svg>
