<svg width="32" height="32" viewBox="0 0 32 32" fill="none" xmlns="http://www.w3.org/2000/svg">
<path d="M16 4.10809C19.869 4.10809 20.33 4.12309 21.857 4.19309C23.27 4.25809 24.04 4.49209 24.549 4.69109C25.182 4.92509 25.749 5.29509 26.217 5.77909C26.697 6.24709 27.069 6.81509 27.303 7.44609C27.503 7.95709 27.738 8.72709 27.8 10.1381C27.873 11.6661 27.886 12.1251 27.886 15.9971C27.886 19.8671 27.873 20.3271 27.8 21.8541C27.739 23.2671 27.503 24.0371 27.303 24.5461C26.815 25.8111 25.814 26.8111 24.549 27.3001C24.04 27.5001 23.268 27.7351 21.857 27.7971C20.331 27.8701 19.87 27.8831 16 27.8831C12.128 27.8831 11.671 27.8701 10.141 27.7971C8.72802 27.7361 7.96002 27.5001 7.44902 27.3001C6.81802 27.0671 6.25102 26.6961 5.78102 26.2141C5.30002 25.7491 4.93002 25.1781 4.69402 24.5461C4.49602 24.0371 4.26102 23.2651 4.19702 21.8541C4.12602 20.3281 4.11202 19.8671 4.11202 15.9971C4.11202 12.1251 4.12602 11.6681 4.19702 10.1381C4.26202 8.72609 4.49502 7.95709 4.69402 7.44609C4.92802 6.81609 5.29802 6.24809 5.78202 5.77909C6.25002 5.29709 6.81802 4.92609 7.44902 4.69109C7.96002 4.49309 8.72902 4.25809 10.141 4.19309C11.671 4.12409 12.127 4.10809 16 4.10809ZM16 1.49609C12.061 1.49609 11.569 1.51409 10.021 1.58409C8.47802 1.65509 7.42602 1.89909 6.50402 2.25709C5.53402 2.62209 4.65902 3.19209 3.93402 3.93009C3.19402 4.65509 2.62602 5.53009 2.25902 6.49909C1.90302 7.42109 1.65702 8.47509 1.58602 10.0181C1.51702 11.5631 1.49902 12.0571 1.49902 15.9951C1.49902 19.9311 1.51702 20.4271 1.58702 21.9721C1.65802 23.5151 1.90302 24.5671 2.26002 25.4931C2.62502 26.4611 3.19502 27.3381 3.93302 28.0611C4.65802 28.8001 5.53302 29.3691 6.50202 29.7341C7.42402 30.0901 8.47802 30.3381 10.019 30.4051C11.569 30.4811 12.059 30.4951 15.999 30.4951C19.939 30.4951 20.431 30.4801 21.979 30.4051C23.52 30.3391 24.572 30.0911 25.499 29.7341C27.446 28.9801 28.985 27.4401 29.739 25.4931C30.095 24.5671 30.343 23.5151 30.41 21.9731C30.486 20.4271 30.5 19.9321 30.5 15.9961C30.5 12.0581 30.485 11.5651 30.41 10.0191C30.344 8.47509 30.096 7.42309 29.739 6.50009C29.375 5.53009 28.804 4.65509 28.066 3.93009C27.342 3.19209 26.465 2.62309 25.498 2.25709C24.572 1.90009 23.52 1.65509 21.978 1.58409C20.432 1.51309 19.936 1.49609 16 1.49609ZM15.896 8.41909C11.813 8.41909 8.50202 11.7281 8.50202 15.8141C8.50202 19.8971 11.813 23.2041 15.896 23.2041C19.979 23.2041 23.293 19.8961 23.293 15.8141C23.293 11.7271 19.979 8.41909 15.896 8.41909ZM15.896 20.6131C13.247 20.6131 11.096 18.4641 11.096 15.8131C11.096 13.1611 13.247 11.0131 15.896 11.0131C18.548 11.0131 20.697 13.1621 20.697 15.8131C20.697 18.4651 18.548 20.6131 15.896 20.6131ZM23.583 6.40109C24.539 6.40109 25.308 7.17209 25.308 8.12709C25.308 9.08209 24.539 9.85409 23.583 9.85409C22.631 9.85409 21.853 9.08009 21.853 8.12709C21.853 7.17109 22.63 6.40109 23.583 6.40109Z" fill="white"/>
</svg>
