<svg width="313" height="315" viewBox="0 0 313 315" fill="none" xmlns="http://www.w3.org/2000/svg">
<path d="M82.565 57.2359L82.635 62.2303C83.1422 98.39 122.251 120.752 153.671 102.847L158.187 100.274C187.719 83.4452 224.448 104.625 224.676 138.615L224.756 150.502C224.921 175.096 249.183 192.262 272.429 184.234V184.234" stroke="#F2F2F2" stroke-width="0.653416"/>
<path d="M80.9072 60.107L80.9773 65.1014C81.4845 101.261 120.593 123.623 152.013 105.718L156.529 103.145C186.062 86.3163 222.791 107.496 223.018 141.487L223.098 153.374C223.263 177.967 247.525 195.134 270.771 187.105V187.105" stroke="#F2F2F2" stroke-width="0.653416"/>
<path d="M79.2498 62.9782L79.3199 67.9726C79.8271 104.132 118.936 126.494 150.356 108.59L154.871 106.016C184.404 89.1875 221.133 110.367 221.361 144.358L221.441 156.245C221.605 180.838 245.867 198.005 269.114 189.976V189.976" stroke="#F2F2F2" stroke-width="0.653416"/>
<path d="M77.592 65.8493L77.662 70.8437C78.1692 107.003 117.278 129.365 148.698 111.461L153.214 108.888C182.746 92.0586 219.475 113.238 219.703 147.229L219.783 159.116C219.948 183.709 244.21 200.876 267.456 192.847V192.847" stroke="#F2F2F2" stroke-width="0.653416"/>
<path d="M75.9345 68.7204L76.0045 73.7148C76.5118 109.875 115.621 132.236 147.041 114.332L151.556 111.759C181.089 94.9297 217.818 116.11 218.046 150.1L218.125 161.987C218.29 186.58 242.552 203.747 265.799 195.718V195.718" stroke="#F2F2F2" stroke-width="0.653416"/>
<path d="M74.2765 71.5916L74.3465 76.586C74.8537 112.746 113.963 135.107 145.383 117.203L149.898 114.63C179.431 97.8009 216.16 118.981 216.388 152.971L216.467 164.858C216.632 189.451 240.894 206.618 264.141 198.59V198.59" stroke="#F2F2F2" stroke-width="0.653416"/>
<path d="M72.6191 74.4627L72.6891 79.4571C73.1964 115.617 112.305 137.979 143.725 120.074L148.241 117.501C177.773 100.672 214.503 121.852 214.73 155.842L214.81 167.729C214.975 192.323 239.237 209.489 262.483 201.461V201.461" stroke="#F2F2F2" stroke-width="0.653416"/>
<path d="M70.9615 77.3338L71.0316 82.3282C71.5388 118.488 110.648 140.85 142.068 122.945L146.583 120.372C176.116 103.543 212.845 124.723 213.073 158.713L213.152 170.6C213.317 195.194 237.579 212.36 260.826 204.332V204.332" stroke="#F2F2F2" stroke-width="0.653416"/>
<path d="M69.3037 80.205L69.3737 85.1994C69.881 121.359 108.99 143.721 140.41 125.816L144.925 123.243C174.458 106.414 211.187 127.594 211.415 161.584L211.494 173.471C211.659 198.065 235.921 215.232 259.168 207.203V207.203" stroke="#F2F2F2" stroke-width="0.653416"/>
<path d="M67.6463 83.0761L67.7163 88.0704C68.2236 124.23 107.332 146.592 138.752 128.687L143.268 126.114C172.801 109.285 209.53 130.465 209.757 164.456L209.837 176.343C210.002 200.936 234.264 218.103 257.51 210.074V210.074" stroke="#F2F2F2" stroke-width="0.653416"/>
<path d="M65.9884 85.9471L66.0585 90.9415C66.5657 127.101 105.675 149.463 137.095 131.559L141.61 128.985C171.143 112.156 207.872 133.336 208.1 167.327L208.179 179.214C208.344 203.807 232.606 220.974 255.853 212.945V212.945" stroke="#F2F2F2" stroke-width="0.653416"/>
<path d="M64.3309 88.8183L64.401 93.8127C64.9082 129.972 104.017 152.334 135.437 134.43L139.953 131.857C169.485 115.028 206.214 136.207 206.442 170.198L206.522 182.085C206.686 206.678 230.949 223.845 254.195 215.816V215.816" stroke="#F2F2F2" stroke-width="0.653416"/>
<path d="M62.6734 91.6893L62.7434 96.6837C63.2507 132.843 102.36 155.205 133.78 137.301L138.295 134.728C167.828 117.899 204.557 139.078 204.785 173.069L204.864 184.956C205.029 209.549 229.291 226.716 252.538 218.687V218.687" stroke="#F2F2F2" stroke-width="0.653416"/>
<path d="M61.0157 94.5605L61.0857 99.5549C61.593 135.715 100.702 158.076 132.122 140.172L136.637 137.599C166.17 120.77 202.899 141.95 203.127 175.94L203.206 187.827C203.371 212.42 227.633 229.587 250.88 221.559V221.559" stroke="#F2F2F2" stroke-width="0.653416"/>
<path d="M59.358 97.4317L59.428 102.426C59.9353 138.586 99.0442 160.947 130.464 143.043L134.98 140.47C164.512 123.641 201.241 144.821 201.469 178.811L201.549 190.698C201.714 215.292 225.976 232.458 249.222 224.43V224.43" stroke="#F2F2F2" stroke-width="0.653416"/>
<path d="M57.7396 100.235L57.8096 105.229C58.3169 141.389 97.4258 163.751 128.846 145.846L133.361 143.273C162.894 126.444 199.623 147.624 199.851 181.614L199.93 193.501C200.095 218.095 224.357 235.261 247.604 227.233V227.233" stroke="#F2F2F2" stroke-width="0.653416"/>
<path d="M56.1212 103.038L56.1912 108.032C56.6984 144.192 95.8073 166.554 127.227 148.649L131.743 146.076C161.276 129.247 198.005 150.427 198.232 184.418L198.312 196.304C198.477 220.898 222.739 238.065 245.985 230.036V230.036" stroke="#F2F2F2" stroke-width="0.653416"/>
<path d="M54.5028 105.841L54.5728 110.836C55.08 146.995 94.1889 169.357 125.609 151.453L130.124 148.879C159.657 132.05 196.386 153.23 196.614 187.221L196.694 199.108C196.858 223.701 221.12 240.868 244.367 232.839V232.839" stroke="#F2F2F2" stroke-width="0.653416"/>
<path d="M52.8843 108.644L52.9544 113.639C53.4616 149.798 92.5705 172.16 123.991 154.256L128.506 151.683C158.039 134.854 194.768 156.033 194.996 190.024L195.075 201.911C195.24 226.504 219.502 243.671 242.749 235.642V235.642" stroke="#F2F2F2" stroke-width="0.653416"/>
<path d="M51.2659 111.448L51.336 116.442C51.8432 152.602 90.9521 174.963 122.372 157.059L126.888 154.486C156.42 137.657 193.149 158.837 193.377 192.827L193.457 204.714C193.622 229.307 217.884 246.474 241.13 238.446V238.446" stroke="#F2F2F2" stroke-width="0.653416"/>
<path d="M49.6475 114.251L49.7176 119.245C50.2248 155.405 89.3337 177.766 120.754 159.862L125.269 157.289C154.802 140.46 191.531 161.64 191.759 195.63L191.838 207.517C192.003 232.111 216.265 249.277 239.512 241.249V241.249" stroke="#F2F2F2" stroke-width="0.653416"/>
<path d="M48.0291 117.054L48.0992 122.048C48.6064 158.208 87.7153 180.57 119.135 162.665L123.651 160.092C153.183 143.263 189.913 164.443 190.14 198.433L190.22 210.32C190.385 234.914 214.647 252.08 237.893 244.052V244.052" stroke="#F2F2F2" stroke-width="0.653416"/>
<path d="M46.4107 119.857L46.4808 124.851C46.988 161.011 86.0969 183.373 117.517 165.468L122.032 162.895C151.565 146.066 188.294 167.246 188.522 201.236L188.602 213.123C188.766 237.717 213.028 254.884 236.275 246.855V246.855" stroke="#F2F2F2" stroke-width="0.653416"/>
<path d="M44.7923 122.66L44.8624 127.655C45.3696 163.814 84.4785 186.176 115.898 168.272L120.414 165.698C149.947 148.869 186.676 170.049 186.903 204.04L186.983 215.927C187.148 240.52 211.41 257.687 234.656 249.658V249.658" stroke="#F2F2F2" stroke-width="0.653416"/>
<path d="M43.1739 125.463L43.244 130.458C43.7512 166.617 82.8601 188.979 114.28 171.075L118.796 168.502C148.328 151.673 185.057 172.852 185.285 206.843L185.365 218.73C185.529 243.323 209.792 260.49 233.038 252.461V252.461" stroke="#F2F2F2" stroke-width="0.653416"/>
<path d="M41.5555 128.266L41.6255 133.261C42.1328 169.421 81.2417 191.782 112.662 173.878L117.177 171.305C146.71 154.476 183.439 175.656 183.667 209.646L183.746 221.533C183.911 246.126 208.173 263.293 231.42 255.265V255.265" stroke="#F2F2F2" stroke-width="0.653416"/>
<path d="M39.9371 131.07L40.0071 136.064C40.5144 172.224 79.6233 194.585 111.043 176.681L115.559 174.108C145.091 157.279 181.821 178.459 182.048 212.449L182.128 224.336C182.293 248.929 206.555 266.096 229.801 258.068V258.068" stroke="#F2F2F2" stroke-width="0.653416"/>
<path d="M38.3187 133.873L38.3887 138.867C38.896 175.027 78.0049 197.389 109.425 179.484L113.94 176.911C143.473 160.082 180.202 181.262 180.43 215.252L180.509 227.139C180.674 251.733 204.936 268.899 228.183 260.871V260.871" stroke="#F2F2F2" stroke-width="0.653416"/>
<path d="M36.7003 136.676L36.7703 141.67C37.2775 177.83 76.3865 200.192 107.806 182.287L112.322 179.714C141.855 162.885 178.584 184.065 178.811 218.055L178.891 229.942C179.056 254.536 203.318 271.703 226.564 263.674V263.674" stroke="#F2F2F2" stroke-width="0.653416"/>
</svg>
