<svg width="36" height="36" viewBox="0 0 36 36" fill="none" xmlns="http://www.w3.org/2000/svg">
<path fill-rule="evenodd" clip-rule="evenodd" d="M22.6969 8.00156C24.2156 8.00156 25.8539 8.59922 26.8242 9.58359C28.0266 9.35156 29.1586 8.93672 30.1781 8.36016C29.7844 9.54141 28.9477 10.5258 27.8508 11.1516C28.9195 11.025 29.9391 10.7578 30.8883 10.357C30.1781 11.3695 29.2852 12.2625 28.2516 12.9727C28.2586 13.1906 28.2656 13.4086 28.2656 13.6266C28.2656 20.3062 23.0414 28.0055 13.3172 28.0055C10.0898 28.0055 7.45313 27.1617 5.11173 25.7273C5.52657 25.7766 5.94844 25.7977 6.37032 25.7977C8.85235 25.7977 11.1305 24.9891 12.9445 23.632C10.6313 23.5898 8.67657 22.1273 8.00157 20.1234C8.32501 20.1797 8.65548 20.2148 9.00001 20.2148C9.47813 20.2148 9.94923 20.1516 10.3922 20.0391C7.97344 19.575 6.23673 17.5219 6.23673 15.075C6.23673 15.0539 6.23673 15.0328 6.23673 15.0117C6.94688 15.3914 7.76251 15.6164 8.63438 15.6445C7.21407 14.7375 6.27891 13.1906 6.27891 11.4398C6.27891 10.5117 6.53907 9.64687 6.9961 8.90156C9.60469 11.9531 13.4156 13.9781 17.8102 14.1891C17.7188 13.8234 17.6695 13.4297 17.6695 13.0359C17.6695 10.2445 19.7719 8.00156 22.6969 8.00156ZM22.6969 6.82031C19.2727 6.82031 16.5797 9.47109 16.5023 12.8812C13.1344 12.3961 10.1109 10.7437 7.88204 8.13516C7.65704 7.875 7.3336 7.72734 6.98907 7.72734C6.96094 7.72734 6.92579 7.72734 6.89766 7.73437C6.52501 7.7625 6.18751 7.97344 5.99063 8.28984C5.40704 9.23906 5.09766 10.3289 5.09766 11.4469C5.09766 12.3398 5.29454 13.2047 5.66016 13.9922C5.6461 13.9992 5.63907 14.0062 5.62501 14.0133C5.27344 14.2242 5.05548 14.6109 5.05548 15.0187V15.082C5.05548 16.8187 5.77969 18.4148 6.97501 19.5539C6.81329 19.8422 6.77813 20.1867 6.8836 20.5031C7.38985 22.0219 8.46563 23.2523 9.84376 24.0047C8.74688 24.4125 7.57969 24.6234 6.37032 24.6234C5.9836 24.6234 5.60391 24.6023 5.25235 24.5602C5.20313 24.5531 5.16094 24.5531 5.11173 24.5531C4.61954 24.5531 4.16954 24.8695 4.00782 25.3477C3.82501 25.868 4.03594 26.4516 4.50704 26.7398C7.19298 28.3852 10.0758 29.1867 13.3242 29.1867C23.4141 29.1867 29.4469 21.2766 29.4469 13.6336C29.4469 13.6125 29.4469 13.5914 29.4469 13.5703C30.3609 12.8602 31.1625 12.0305 31.8305 11.0813C31.9852 10.8844 32.0695 10.6383 32.0695 10.3641C32.0695 9.7875 31.6617 9.30937 31.1133 9.21094C31.1766 9.05625 31.2399 8.90156 31.2891 8.74687C31.4438 8.28281 31.2961 7.77656 30.9234 7.46719C30.7055 7.29141 30.4453 7.2 30.1781 7.2C29.9813 7.2 29.7844 7.24922 29.6016 7.35469C28.8422 7.78359 28.0195 8.11406 27.1547 8.325C25.9805 7.38281 24.3281 6.82031 22.6969 6.82031Z" fill="white"/>
</svg>
